<?xml version="1.0" standalone="no"?><!DOCTYPE svg PUBLIC "-//W3C//DTD SVG 1.1//EN" "http://www.w3.org/Graphics/SVG/1.1/DTD/svg11.dtd"><svg t="1570864832471" class="icon" viewBox="0 0 1027 1024" version="1.1" xmlns="http://www.w3.org/2000/svg" p-id="25949" xmlns:xlink="http://www.w3.org/1999/xlink" width="200.5859375" height="200"><defs><style type="text/css"></style></defs><path d="M971.499927 107.548408A114.092769 114.092769 0 0 0 855.695767 0.015973H169.14253a114.092769 114.092769 0 0 0-114.092769 107.817667L0 498.886605a109.529058 109.529058 0 0 0 59.32824 96.123158v305.198157a124.64635 124.64635 0 0 0 125.216814 123.790654h656.033421c85.569577 0 125.216814-53.623601 125.216814-123.790654V596.15069A109.81429 109.81429 0 0 0 1026.83492 498.886605z m-69.596589 792.659512a55.049761 55.049761 0 0 1-60.469167 59.043007h-656.033422a59.898704 59.898704 0 0 1-60.469167-59.043007v-290.936561h776.971756zM912.742151 544.523713H114.092769a48.489427 48.489427 0 0 1-50.200818-43.640485l54.194065-390.767733a51.056514 51.056514 0 0 1 51.056514-45.351876H855.695767a49.915586 49.915586 0 0 1 50.48605 45.351876l57.046384 390.767733A48.489427 48.489427 0 0 1 912.742151 544.523713z" p-id="25950"></path><path d="M804.068789 287.529751H207.648839a35.083526 35.083526 0 0 0 0 70.452284h596.41995a35.083526 35.083526 0 1 0 0-70.452284z" p-id="25951"></path></svg>