<?xml version="1.0" standalone="no"?><!DOCTYPE svg PUBLIC "-//W3C//DTD SVG 1.1//EN" "http://www.w3.org/Graphics/SVG/1.1/DTD/svg11.dtd"><svg t="1570864504220" class="icon" viewBox="0 0 1024 1024" version="1.1" xmlns="http://www.w3.org/2000/svg" p-id="23822" xmlns:xlink="http://www.w3.org/1999/xlink" width="200" height="200"><defs><style type="text/css"></style></defs><path d="M768.227556 46.08h-94.094223c-13.312 0-24.120889 16.156444-24.120889 16.156444-31.857778 43.008-82.033778 70.883556-138.581333 70.883556s-106.723556-27.875556-138.581333-70.883556c0 0-10.808889-16.156444-24.120889-16.156444h-94.094222c-60.984889 0-110.478222 50.972444-110.478223 113.777778v704.398222c0 62.805333 49.493333 113.777778 110.478223 113.777778h94.094222c13.312 0 24.120889-16.156444 24.120889-16.156445 31.971556-43.008 82.033778-70.883556 138.581333-70.883555s106.723556 27.875556 138.581333 70.883555c0 0 10.808889 16.156444 24.120889 16.156445h94.094223c60.984889 0 110.478222-50.972444 110.478222-113.777778V159.857778c0.113778-62.919111-49.379556-113.777778-110.478222-113.777778zM654.336 481.28c0 10.24-8.533333 18.545778-19.114667 18.545778h-98.872889v48.241778h98.872889c10.581333 0 19.114667 8.305778 19.114667 18.545777v11.036445c0 10.24-8.533333 18.545778-19.114667 18.545778h-98.872889v71.793777c0 10.24-8.533333 18.659556-19.114666 18.659556h-11.377778c-10.581333 0-19.114667-8.305778-19.114667-18.659556V596.195556h-98.872889c-10.581333 0-19.114667-8.305778-19.114666-18.545778V566.613333c0-10.24 8.533333-18.545778 19.114666-18.545777h98.872889v-48.241778h-98.872889c-10.581333 0-19.114667-8.305778-19.114666-18.545778v-11.036444c0-10.24 8.533333-18.545778 19.114666-18.545778h78.961778l-71.566222-69.518222c-8.533333-8.192-8.533333-21.617778 0-29.809778l4.437333-4.209778c8.533333-8.192 22.300444-8.192 30.72 0l81.237334 78.848 81.237333-78.848c8.533333-8.192 22.300444-8.192 30.72 0l4.437333 4.209778c8.533333 8.192 8.533333 21.617778 0 29.809778L556.259556 451.697778h78.961777c10.581333 0 19.114667 8.305778 19.114667 18.545778v11.036444z" p-id="23823"></path></svg>