<?xml version="1.0" standalone="no"?><!DOCTYPE svg PUBLIC "-//W3C//DTD SVG 1.1//EN" "http://www.w3.org/Graphics/SVG/1.1/DTD/svg11.dtd"><svg t="1570864601371" class="icon" viewBox="0 0 1024 1024" version="1.1" xmlns="http://www.w3.org/2000/svg" p-id="24385" xmlns:xlink="http://www.w3.org/1999/xlink" width="200" height="200"><defs><style type="text/css"></style></defs><path d="M346.112 932.864H166.912c-23.552 0-43.008-19.456-43.008-43.008V134.144c0-23.552 19.456-43.008 43.008-43.008h608.256c21.504 0 43.008 16.384 43.008 43.008v236.544c0 8.192 7.168 15.36 15.36 15.36h44.032c8.192 0 15.36-7.168 15.36-15.36V112.64c0-50.176-40.96-92.16-92.16-92.16H141.312c-50.176 0-92.16 40.96-92.16 91.136V911.36c0 50.176 40.96 91.136 92.16 91.136h205.824c8.192 0 15.36-7.168 15.36-15.36v-39.936c-1.024-7.168-8.192-14.336-16.384-14.336z" p-id="24386"></path><path d="M596.992 468.992v-45.056c0-10.24-8.192-17.408-17.408-17.408H253.952c-10.24 0-17.408 8.192-17.408 17.408v45.056c0 10.24 8.192 17.408 17.408 17.408h324.608c10.24 0 18.432-8.192 18.432-17.408zM253.952 582.656c-10.24 0-17.408 8.192-17.408 17.408V645.12c0 10.24 8.192 17.408 17.408 17.408h205.824c10.24 0 17.408-8.192 17.408-17.408v-45.056c0-10.24-8.192-17.408-17.408-17.408H253.952zM684.032 290.816V245.76c0-10.24-8.192-17.408-17.408-17.408H253.952c-10.24 0-17.408 8.192-17.408 17.408v45.056c0 10.24 8.192 17.408 17.408 17.408H665.6c10.24 1.024 18.432-7.168 18.432-17.408zM964.608 578.56L817.152 432.128c-6.144-3.072-13.312-6.144-19.456-6.144-6.144 0-13.312 0-19.456 6.144L410.624 801.792c-3.072 6.144-6.144 13.312-6.144 19.456v147.456c0 13.312 10.24 26.624 26.624 26.624h147.456c6.144 0 13.312 0 19.456-6.144l219.136-222.208c10.24-10.24 10.24-29.696 0-38.912-10.24-10.24-29.696-10.24-38.912 0L568.32 934.912c-2.048 2.048-5.12 4.096-9.216 4.096h-90.112c-7.168 0-12.288-6.144-12.288-12.288v-90.112c0-3.072 1.024-6.144 4.096-9.216l327.68-327.68c5.12-5.12 13.312-5.12 18.432 0l91.136 91.136c5.12 5.12 5.12 12.288 1.024 17.408L885.76 624.64c-5.12 6.144-13.312 6.144-18.432 1.024l-46.08-46.08c-10.24-10.24-29.696-10.24-38.912 0-10.24 10.24-10.24 29.696 0 38.912l71.68 74.752c6.144 3.072 13.312 6.144 19.456 6.144s13.312 0 19.456-6.144l71.68-74.752c3.072-6.144 6.144-13.312 6.144-19.456 0-7.168 0-13.312-6.144-20.48z" p-id="24387"></path></svg>