<?xml version="1.0" standalone="no"?><!DOCTYPE svg PUBLIC "-//W3C//DTD SVG 1.1//EN" "http://www.w3.org/Graphics/SVG/1.1/DTD/svg11.dtd"><svg t="1570864568115" class="icon" viewBox="0 0 1024 1024" version="1.1" xmlns="http://www.w3.org/2000/svg" p-id="24162" xmlns:xlink="http://www.w3.org/1999/xlink" width="200" height="200"><defs><style type="text/css"></style></defs><path d="M691.072 394.9568H429.6704a13.056 13.056 0 0 0 0 26.0096h261.376a13.056 13.056 0 0 0 0-26.0096z m-351.3088 13.0048a11.9296 11.9296 0 0 0 10.3936 13.0048h31.2064a13.3376 13.3376 0 0 0 0-26.0096h-31.1808a11.9296 11.9296 0 0 0-10.3936 13.0048z m351.3088 130.048H429.6704a13.056 13.056 0 0 0 0 26.0096h261.376a13.056 13.056 0 0 0 0-26.0096z m-309.76 0h-31.1296a13.3376 13.3376 0 0 0 0 26.0096h31.2064a13.3376 13.3376 0 0 0 0-26.0096z m309.76 143.0784H429.6704a13.056 13.056 0 0 0 0 26.0096h261.376a13.056 13.056 0 0 0 0-26.0096z m-309.76 0h-31.1296a13.3376 13.3376 0 0 0 0 26.0096h31.2064a13.3376 13.3376 0 0 0 0-26.0096z m48.9216-377.1648h182.0672a26.0352 26.0352 0 0 0 26.0096-26.0096v-65.024A26.0352 26.0352 0 0 0 612.3008 186.88h-181.9904a26.0352 26.0352 0 0 0-26.0096 26.0096v65.024a26.0352 26.0352 0 0 0 26.0096 26.0096z m0-91.0336h182.0672v65.024h-181.9904v-65.024zM768.384 186.88h-103.9616v26.0096h104.0384a39.0656 39.0656 0 0 1 39.0144 39.0144v520.2176a39.0656 39.0656 0 0 1-39.0144 39.0144H274.2528a39.0656 39.0656 0 0 1-39.1424-39.0144V251.8784a39.0656 39.0656 0 0 1 39.0144-39.0144h104.0384V186.8544H274.2528a65.1008 65.1008 0 0 0-65.024 65.024v520.2432a65.1008 65.1008 0 0 0 65.024 65.024h494.208a65.1008 65.1008 0 0 0 65.024-65.024V251.8784a65.1008 65.1008 0 0 0-65.024-65.024zM1024 512a512 512 0 1 1-512-512 512 512 0 0 1 512 512z" p-id="24163"></path></svg>