<?xml version="1.0" standalone="no"?><!DOCTYPE svg PUBLIC "-//W3C//DTD SVG 1.1//EN" "http://www.w3.org/Graphics/SVG/1.1/DTD/svg11.dtd"><svg t="1570864662572" class="icon" viewBox="0 0 1024 1024" version="1.1" xmlns="http://www.w3.org/2000/svg" p-id="24832" xmlns:xlink="http://www.w3.org/1999/xlink" width="200" height="200"><defs><style type="text/css"></style></defs><path d="M974.562543 394.121266a10.461259 10.461259 0 0 0-4.960989-6.460132l-73.945129-42.683125c-5.045923-2.936889-11.630898-1.246387-14.586207 3.901866l-7.296173 12.630669-7.116071 12.323676 7.116071-12.323676v-101.743242c0-2.77316-0.560772-5.545296-1.64343-8.150634a21.288862 21.288862 0 0 0-4.629437-6.961552L646.622582 23.736611a21.261233 21.261233 0 0 0-6.961552-4.623298 21.202904 21.202904 0 0 0-8.145518-1.648546H148.814816c-51.814086 0-93.996814 42.164309-93.996815 93.972255v764.975618c0 51.813063 42.182728 93.976348 93.996815 93.976348h396.165831l-2.940982-11.55722 2.940982 11.55722 9.17087 36.176944a10.611685 10.611685 0 0 0 5.000898 6.608512 10.499122 10.499122 0 0 0 5.336541 1.435698c0.960885 0 1.961678-0.122797 2.877538-0.394996l58.896388-16.611329a10.649548 10.649548 0 0 0 7.585769-8.272408l3.604084-18.938328h142.369522c51.814086 0 93.952812-42.167379 93.952812-93.980441V574.995753l99.747794-172.762739a10.608615 10.608615 0 0 0 1.03968-8.111748M652.85554 90.333378l148.057057 148.092873h-96.744391c-28.304649 0-51.312666-23.013133-51.312666-51.293223V90.333378m-100.120279 837.372485l-10.253528 8.856716 10.253528-8.856716H148.814816c-28.305673 0-51.312666-23.008017-51.312666-51.293223V111.437022c0-17.365506 8.674567-32.742728 21.924335-42.026163a51.048653 51.048653 0 0 1 29.388331-9.261944h461.357599V187.135074c0 51.813063 42.182728 93.975325 93.995791 93.975325h126.921691V435.440323L582.287321 866.36582a10.605545 10.605545 0 0 0-1.044795 8.111748 10.455119 10.455119 0 0 0 4.960988 6.460132l12.421914 7.169283-45.890167 39.59888m71.15048 0l-8.148587 42.683125-1.603521 8.460696-42.018999 11.859095-5.145183-20.318767-5.565763-21.968338 24.00881-20.715811 32.781614-28.304649 9.982352 5.76326-4.290723 22.541389m207.203133-51.293223c0 28.285207-23.006993 51.293223-51.267641 51.293223H645.580856l2.14485-11.254321 12.422937 7.16826a10.458189 10.458189 0 0 0 5.336542 1.435698 10.734482 10.734482 0 0 0 9.252735-5.332448l156.34993-270.803659v227.493247h0.001024m42.685171-344.165504l-42.683125 73.933873-169.521928 293.639761-55.441706-32.013112 224.961588-389.651464 41.59842-72.056106 1.085728 0.623194 54.351885 31.374568-54.350862 94.149286m65.024969-112.6128L883.362424 387.621225l10.877745-18.838044 55.437613 32.007995-10.878768 18.84316m-68.318991 32.969902l-39.391149 68.235081-20.38426 35.300994c-2.916423 5.110391-1.168616 11.630898 3.92131 14.57188a10.44284 10.44284 0 0 0 5.332448 1.434675c3.667529 0 7.252171-1.915629 9.251712-5.331425l1.876743-3.25309 42.683125-73.93285 15.214517-26.349111c2.916423-5.109368 1.166569-11.630898-3.917217-14.57188-3.792373-2.199085-7.964392-1.104147-11.298323 1.37737-1.119497 0.841158-2.535753 1.216711-3.288906 2.518356m-665.350621-80.444147h501.887688c29.105898 0 29.105898-45.13906 0-45.139059H205.129402c-29.112038 0.002047-29.112038 45.13906 0 45.139059m0 105.173365h421.103804c29.113061 0 29.113061-45.144176 0-45.144176H205.129402c-29.112038 0-29.112038 45.144176 0 45.144176m352.470657 69.897953H205.129402c-29.118178 0-29.118178 45.13906 0 45.13906h352.468611c29.109991 0.001023 29.109991-45.13906 0.002046-45.13906m-15.809057 224.524636c-15.780405 3.301186-31.752168 5.852288-47.689139 8.32255-4.152577 0.647753-8.426927 1.407046-12.752442 2.163269 0.153496-3.233648-1.263783-6.390547-4.582365-8.540514-14.030551-9.144264-40.495296-1.603521-55.422264 1.114381-7.258311 1.312902-16.1007 2.737344-24.686238 5.110391-4.441149-3.508917-11.109012-4.13518-17.724687-3.946892 2.104941-11.609409-60.309574-20.85805-78.435397-19.833721-36.440957 2.103918-75.018577 24.201192-105.261369 42.682102-10.614755 6.481621-0.905626 23.191188 9.760295 16.680914 28.542056-17.447371 61.694107-35.850509 95.501074-40.014342a29.661553 29.661553 0 0 1 4.095271-0.213871 1.423419 1.423419 0 0 1-0.109493 0.278339c-0.320295 0.560772-0.782829 1.049912-1.173733 1.558496-17.96721 1.14508-48.852638 6.15007-42.841737 27.994587 6.046716 22.0062 93.269243 1.446955 105.517196-8.987698 0.847298-0.013303 1.658779-0.023536 2.49175-0.023536-0.020466 0.033769-0.074701 0.078795-0.109494 0.122797-4.564969 6.15007-0.881067 15.487739 5.194303 18.662035 8.411577 4.342912 19.389606-2.907213 24.254403-9.620102 1.248434-1.747807 2.293229-3.777023 3.050476-5.931083 3.569292-0.971118 7.16826-1.783623 10.457166-2.589988 9.406231-2.422166 19.012006-4.184299 28.656667-5.431709-2.124384 5.471618 1.000793 12.259208 8.719592 12.936637 13.446243 1.204431 27.993564-2.275833 41.257659-4.172019 19.067264-2.702552 38.138622-5.748934 56.976666-9.674337 12.192693-2.550079 7.024997-21.196765-5.14416-18.646686M237.136374 282.465257" p-id="24833"></path></svg>