<?xml version="1.0" standalone="no"?><!DOCTYPE svg PUBLIC "-//W3C//DTD SVG 1.1//EN" "http://www.w3.org/Graphics/SVG/1.1/DTD/svg11.dtd"><svg t="1570864699686" class="icon" viewBox="0 0 1024 1024" version="1.1" xmlns="http://www.w3.org/2000/svg" p-id="25054" xmlns:xlink="http://www.w3.org/1999/xlink" width="200" height="200"><defs><style type="text/css"></style></defs><path d="M339.035 64H173.73c-33.339 0-55.101 21.835-55.101 56.043V742.53l110.205 197.9c16.625 26.092 38.472 26.092 55.097 0l110.207-197.9V120.043c0-34.208-21.767-56.043-55.103-56.043z m-82.656 819.9L173.73 736.558h165.304L256.379 883.9z m82.656-203.39H173.73V316.206h165.304V680.51z m0-532.443v112.096H173.73V148.067c-0.865-27.696 0.533-28.898 27.547-28.024h110.205c27.013 0.195 27.657-0.926 27.553 28.024zM877.82 680.51H476.787c-15.224 0-27.552 12.531-27.552 28.024s12.328 28.024 27.552 28.024H877.82c15.224 0 27.552-12.531 27.552-28.024-0.005-15.492-12.329-28.024-27.552-28.024zM476.787 148.067h165.311c15.224 0 27.545-12.538 27.545-28.024 0-15.488-12.322-28.02-27.545-28.02H476.787c-15.224 0-27.552 12.531-27.552 28.02 0 15.486 12.328 28.024 27.552 28.024z m0 196.167H877.82c15.224 0 27.552-12.536 27.552-28.028 0-15.488-12.328-28.024-27.552-28.024H476.787c-15.224 0-27.552 12.536-27.552 28.024 0 15.493 12.328 28.028 27.552 28.028z m0 196.159h247.96c15.228 0 27.552-12.531 27.552-28.017 0-15.499-12.324-28.024-27.552-28.024h-247.96c-15.224 0-27.552 12.525-27.552 28.024 0 15.486 12.328 28.017 27.552 28.017z m0 0" fill="#666666" p-id="25055"></path></svg>