<?xml version="1.0" standalone="no"?><!DOCTYPE svg PUBLIC "-//W3C//DTD SVG 1.1//EN" "http://www.w3.org/Graphics/SVG/1.1/DTD/svg11.dtd"><svg t="1570864718320" class="icon" viewBox="0 0 1024 1024" version="1.1" xmlns="http://www.w3.org/2000/svg" p-id="25165" xmlns:xlink="http://www.w3.org/1999/xlink" width="200" height="200"><defs><style type="text/css"></style></defs><path d="M512 0C230.4 0 0 230.4 0 512s230.4 512 512 512 512-230.4 512-512S793.6 0 512 0z m6.4 972.8C262.4 972.8 57.6 768 57.6 512S262.4 51.2 518.4 51.2 972.8 256 972.8 512 768 972.8 518.4 972.8z" fill="" p-id="25166"></path><path d="M326.4 345.6L192 691.2h51.2l32-96H416l32 96h51.2L377.6 345.6h-51.2m-32 217.6l51.2-140.8c0-6.4 6.4-12.8 6.4-25.6 0 12.8 6.4 19.2 6.4 25.6l51.2 140.8H294.4m492.8-166.4c-32-32-76.8-44.8-128-44.8H556.8v345.6h96c57.6 0 102.4-19.2 134.4-51.2s51.2-76.8 51.2-128-19.2-96-51.2-121.6m-32 224c-25.6 25.6-57.6 38.4-102.4 38.4h-51.2V390.4h51.2c38.4 0 76.8 12.8 102.4 32 25.6 19.2 38.4 51.2 38.4 96-6.4 44.8-12.8 76.8-38.4 102.4m0 0z" fill="" p-id="25167"></path></svg>