<?xml version="1.0" standalone="no"?><!DOCTYPE svg PUBLIC "-//W3C//DTD SVG 1.1//EN" "http://www.w3.org/Graphics/SVG/1.1/DTD/svg11.dtd"><svg t="1570864916423" class="icon" viewBox="0 0 1024 1024" version="1.1" xmlns="http://www.w3.org/2000/svg" p-id="26401" xmlns:xlink="http://www.w3.org/1999/xlink" width="200" height="200"><defs><style type="text/css"></style></defs><path d="M484.931504 483.904105l-101.399411 0 0 129.325437 101.399411 0L484.931504 483.904105 484.931504 483.904105zM630.744451 655.478785l-101.501742 0 0 129.325437 101.501742 0L630.744451 655.478785 630.744451 655.478785zM484.931504 655.478785l-101.399411 0 0 129.325437 101.399411 0L484.931504 655.478785 484.931504 655.478785zM630.744451 483.904105l-101.501742 0 0 129.325437 101.501742 0L630.744451 483.904105 630.744451 483.904105z" p-id="26402"></path><path d="M749.042741 906.502959 265.439488 906.502959c-11.129478 0-20.196994-8.965186-20.196994-20.300348L245.242494 611.580996 127.252219 611.580996c-8.347109 0-15.869433-5.152347-18.755156-12.881378-2.988054-7.831362-1.133823-16.590863 4.946662-22.257933l380.040572-354.484523c7.831362-7.213285 19.887956-7.213285 27.720342 0L900.93515 576.441685c6.182816 5.668093 8.03807 14.426571 5.048993 22.257933-2.988054 7.831362-10.510378 12.881378-18.857487 12.881378l-117.577882 0 0 274.724968C769.343089 897.537773 760.27455 906.502959 749.042741 906.502959zM285.739836 866.10897l443.104887 0L728.844723 591.280648c0-11.129478 9.06854-20.300348 20.300348-20.300348l86.457094 0L507.189438 264.515443 178.673355 570.876945l86.766133 0c11.129478 0 20.300348 9.06854 20.300348 20.300348L285.739836 866.10897 285.739836 866.10897z" p-id="26403"></path><path d="M934.322561 559.026036c-5.152347 0-10.201339-1.855254-14.014178-5.668093L509.044692 156.212808 99.841939 540.993335c-8.140401 7.625678-21.021779 7.213285-28.544103-0.927115-7.729032-8.140401-7.316639-21.021779 0.824785-28.647457L495.339552 113.551172c7.831362-7.522324 20.094664-7.316639 27.926026 0.103354l425.072185 410.645614c8.03807 7.831362 8.243755 20.506033 0.514723 28.544103C944.833963 557.068452 939.474908 559.026036 934.322561 559.026036z" p-id="26404"></path></svg>