<?xml version="1.0" standalone="no"?><!DOCTYPE svg PUBLIC "-//W3C//DTD SVG 1.1//EN" "http://www.w3.org/Graphics/SVG/1.1/DTD/svg11.dtd"><svg t="1570864392172" class="icon" viewBox="0 0 1024 1024" version="1.1" xmlns="http://www.w3.org/2000/svg" p-id="23592" xmlns:xlink="http://www.w3.org/1999/xlink" width="200" height="200"><defs><style type="text/css"></style></defs><path d="M674.816 241.6H349.184c-48 0-87.04 39.072-87.04 87.072v15.904l-0.064 0.544h499.84l-0.032-0.544v-15.904c0-48-39.04-87.04-87.072-87.04z" p-id="23593"></path><path d="M213.856 344.576v-15.904a135.456 135.456 0 0 1 135.36-135.296h325.6a135.456 135.456 0 0 1 135.296 135.296v16.448h75.712V193.92A169.12 169.12 0 0 0 716.896 24.96H307.104a169.12 169.12 0 0 0-168.96 168.96v151.2h75.744v-0.544z m739.424 48.768H70.72c-39.008 0-70.72 31.744-70.72 70.72v353.92c0 39.008 31.712 70.72 70.72 70.72h32.256l-27.68 78.144a24.128 24.128 0 1 0 45.472 16.096l33.408-94.24h715.68l33.376 94.24a24.128 24.128 0 0 0 45.472-16.096l-27.68-78.144h32.256c39.008 0 70.72-31.712 70.72-70.72v-353.92c0-38.976-31.712-70.72-70.72-70.72z" p-id="23594"></path></svg>