<?xml version="1.0" standalone="no"?><!DOCTYPE svg PUBLIC "-//W3C//DTD SVG 1.1//EN" "http://www.w3.org/Graphics/SVG/1.1/DTD/svg11.dtd"><svg t="1570864550120" class="icon" viewBox="0 0 1024 1024" version="1.1" xmlns="http://www.w3.org/2000/svg" p-id="24050" xmlns:xlink="http://www.w3.org/1999/xlink" width="200" height="200"><defs><style type="text/css"></style></defs><path d="M512 944c238.592 0 432-193.408 432-432S750.592 80 512 80 80 273.408 80 512 273.408 944 512 944z m0 48C246.912 992 32 777.088 32 512 32 246.912 246.912 32 512 32c265.088 0 480 214.912 480 480 0 265.088-214.912 480-480 480z" p-id="24051"></path><path d="M704 736H352a32 32 0 0 1-32-32v-160c0-5.856 1.696-11.296 4.448-16A31.776 31.776 0 0 1 320 512v-160a32 32 0 0 1 32-32h352a32 32 0 0 1 32 32v160a31.808 31.808 0 0 1-4.448 16 31.808 31.808 0 0 1 4.448 16v160a32 32 0 0 1-32 32z m-16-384h-320a16 16 0 0 0-16 16v128a16 16 0 0 0 16 16h320a16 16 0 0 0 16-16v-128a16 16 0 0 0-16-16z m0 192h-320a16 16 0 0 0-16 16v128a16 16 0 0 0 16 16h320a16 16 0 0 0 16-16v-128a16 16 0 0 0-16-16z m-264 96a8 8 0 0 1-8-8v-16a8 8 0 0 1 8-8h192a8 8 0 0 1 8 8v16a8 8 0 0 1-8 8h-192z m0-192a8 8 0 0 1-8-8v-16a8 8 0 0 1 8-8h192a8 8 0 0 1 8 8v16a8 8 0 0 1-8 8h-192z" p-id="24052"></path></svg>