<?xml version="1.0" standalone="no"?><!DOCTYPE svg PUBLIC "-//W3C//DTD SVG 1.1//EN" "http://www.w3.org/Graphics/SVG/1.1/DTD/svg11.dtd"><svg t="1570864731918" class="icon" viewBox="0 0 1024 1024" version="1.1" xmlns="http://www.w3.org/2000/svg" p-id="25277" xmlns:xlink="http://www.w3.org/1999/xlink" width="200" height="200"><defs><style type="text/css"></style></defs><path d="M234.666667 128l-128 0c-11.776 0-21.333333 9.536-21.333333 21.333333l0 128c0 11.797333 9.557333 21.333333 21.333333 21.333333l128 0c11.776 0 21.333333-9.536 21.333333-21.333333l0-128C256 137.536 246.442667 128 234.666667 128zM221.866667 243.2c0 11.797333-9.557333 21.333333-21.333333 21.333333l-59.733333 0c-11.776 0-21.333333-9.536-21.333333-21.333333L119.466667 183.466667c0-11.797333 9.557333-21.333333 21.333333-21.333333l59.733333 0c11.776 0 21.333333 9.536 21.333333 21.333333L221.866667 243.2z" p-id="25278"></path><path d="M234.666667 426.666667l-128 0c-11.776 0-21.333333 9.536-21.333333 21.333333l0 128c0 11.797333 9.557333 21.333333 21.333333 21.333333l128 0c11.776 0 21.333333-9.536 21.333333-21.333333l0-128C256 436.202667 246.442667 426.666667 234.666667 426.666667zM221.866667 541.866667c0 11.797333-9.557333 21.333333-21.333333 21.333333l-59.733333 0c-11.776 0-21.333333-9.536-21.333333-21.333333L119.466667 482.133333c0-11.797333 9.557333-21.333333 21.333333-21.333333l59.733333 0c11.776 0 21.333333 9.536 21.333333 21.333333L221.866667 541.866667z" p-id="25279"></path><path d="M234.666667 725.333333l-128 0c-11.776 0-21.333333 9.536-21.333333 21.333333l0 128c0 11.797333 9.557333 21.333333 21.333333 21.333333l128 0c11.776 0 21.333333-9.536 21.333333-21.333333l0-128C256 734.869333 246.442667 725.333333 234.666667 725.333333zM221.866667 840.533333c0 11.797333-9.557333 21.333333-21.333333 21.333333l-59.733333 0c-11.776 0-21.333333-9.536-21.333333-21.333333L119.466667 780.8c0-11.797333 9.557333-21.333333 21.333333-21.333333l59.733333 0c11.776 0 21.333333 9.536 21.333333 21.333333L221.866667 840.533333z" p-id="25280"></path><path d="M938.666667 213.333333c0 11.797333-9.557333 21.333333-21.333333 21.333333l-554.666667 0c-11.776 0-21.333333-9.536-21.333333-21.333333l0 0c0-11.797333 9.557333-21.333333 21.333333-21.333333l554.666667 0C929.109333 192 938.666667 201.536 938.666667 213.333333L938.666667 213.333333z" p-id="25281"></path><path d="M938.666667 512c0 11.797333-9.557333 21.333333-21.333333 21.333333l-554.666667 0c-11.776 0-21.333333-9.536-21.333333-21.333333l0 0c0-11.797333 9.557333-21.333333 21.333333-21.333333l554.666667 0C929.109333 490.666667 938.666667 500.202667 938.666667 512L938.666667 512z" p-id="25282"></path><path d="M938.666667 810.666667c0 11.797333-9.557333 21.333333-21.333333 21.333333l-554.666667 0c-11.776 0-21.333333-9.536-21.333333-21.333333l0 0c0-11.797333 9.557333-21.333333 21.333333-21.333333l554.666667 0C929.109333 789.333333 938.666667 798.869333 938.666667 810.666667L938.666667 810.666667z" p-id="25283"></path></svg>