<?xml version="1.0" standalone="no"?><!DOCTYPE svg PUBLIC "-//W3C//DTD SVG 1.1//EN" "http://www.w3.org/Graphics/SVG/1.1/DTD/svg11.dtd"><svg t="1570864631117" class="icon" viewBox="0 0 1024 1024" version="1.1" xmlns="http://www.w3.org/2000/svg" p-id="24610" xmlns:xlink="http://www.w3.org/1999/xlink" width="200" height="200"><defs><style type="text/css"></style></defs><path d="M273.066667 238.933333a68.266667 68.266667 0 0 1 68.266666-68.266666h74.069334a102.434133 102.434133 0 0 1 193.194666 0H682.666667a68.266667 68.266667 0 0 1 68.266666 68.266666h102.4v682.666667H170.666667V238.933333h102.4z m0 34.133334H204.8v614.4h614.4V273.066667h-68.266667v34.133333H273.066667V273.066667z m0 409.6h170.666666v34.133333H273.066667v-34.133333z m0-273.066667h477.866666v34.133333H273.066667v-34.133333z m0 136.533333h477.866666v34.133334H273.066667v-34.133334z m34.133333-273.066666h409.6V238.933333a34.133333 34.133333 0 0 0-34.133333-34.133333h-98.235734l-8.055466-22.766933a68.3008 68.3008 0 0 0-128.750934 0L439.569067 204.8H341.333333a34.133333 34.133333 0 0 0-34.133333 34.133333v34.133334z" p-id="24611"></path></svg>