<?xml version="1.0" standalone="no"?><!DOCTYPE svg PUBLIC "-//W3C//DTD SVG 1.1//EN" "http://www.w3.org/Graphics/SVG/1.1/DTD/svg11.dtd"><svg t="1570864483873" class="icon" viewBox="0 0 1024 1024" version="1.1" xmlns="http://www.w3.org/2000/svg" p-id="23704" xmlns:xlink="http://www.w3.org/1999/xlink" width="200" height="200"><defs><style type="text/css"></style></defs><path d="M364.885333 451.242667c-21.504 0-38.912 17.749333-38.912 39.253333v385.365333c-0.341333 21.162667 16.725333 38.912 37.888 39.253334h1.024c21.504 0 39.253333-17.749333 39.253334-39.253334V490.496c-0.341333-21.504-17.749333-39.253333-39.253334-39.253333zM92.501333 621.568c-21.504 0-39.253333 17.408-39.253333 39.253333v215.04c0 21.504 17.408 39.253333 39.253333 39.253334 21.504-0.341333 38.912-17.749333 39.253334-39.253334v-215.04c0-21.845333-17.408-39.253333-39.253334-39.253333zM637.269333 621.568c-21.504 0-39.253333 17.408-39.253333 39.253333v215.04c0 21.504 17.408 39.253333 39.253333 39.253334 10.581333 0 20.821333-4.096 27.989334-11.605334 7.168-7.168 10.922667-17.066667 10.581333-27.306666v-215.04c0.341333-21.162667-16.384-38.912-37.888-39.253334 0-0.341333-0.341333-0.341333-0.682667-0.341333zM909.994667 451.242667c-21.504 0-39.253333 17.408-39.253334 39.253333v385.365333c0 21.845333 17.408 39.253333 39.253334 39.253334s39.253333-17.408 39.253333-39.253334V490.496c0-21.845333-17.749333-39.253333-39.253333-39.253333z" fill="#707070" p-id="23705"></path><path d="M940.032 110.933333h-123.562667c-21.504-0.682667-39.594667 16.384-40.277333 37.888-0.682667 21.504 16.384 39.594667 37.888 40.277334H854.698667l-219.136 207.189333-245.76-233.472c-15.018667-14.336-38.570667-14.336-53.589334 0l-272.042666 259.413333c-7.509333 6.826667-11.946667 16.725333-12.288 26.965334-0.341333 10.581333 3.754667 20.821333 11.264 28.330666 14.677333 15.36 39.253333 15.701333 54.613333 1.024l0.341333-0.341333 245.418667-233.130667 245.76 232.789334c15.018667 14.336 38.570667 14.336 53.589333 0L901.12 252.586667v30.037333c-0.341333 21.845333 17.066667 39.594667 38.912 39.594667 21.845333 0.341333 39.594667-17.066667 39.594667-38.912V150.186667c0-21.504-17.408-39.253333-39.594667-39.253334 0.341333 0 0.341333 0 0 0z" fill="#707070" p-id="23706"></path></svg>