<?xml version="1.0" standalone="no"?><!DOCTYPE svg PUBLIC "-//W3C//DTD SVG 1.1//EN" "http://www.w3.org/Graphics/SVG/1.1/DTD/svg11.dtd"><svg t="1570864680018" class="icon" viewBox="0 0 1024 1024" version="1.1" xmlns="http://www.w3.org/2000/svg" p-id="24943" xmlns:xlink="http://www.w3.org/1999/xlink" width="200" height="200"><defs><style type="text/css"></style></defs><path d="M483.555556 736.256V623.502222c-64-10.325333-113.777778-54.812444-113.777778-111.530666 0-56.718222 49.777778-101.205333 113.777778-111.502223v-16.497777a28.444444 28.444444 0 0 1 56.888888 0v16.497777c64 10.296889 113.777778 54.784 113.777778 111.502223a28.444444 28.444444 0 0 1-56.888889 0c0-23.267556-23.096889-45.397333-56.888889-53.589334v112.725334c64 10.325333 113.777778 54.812444 113.777778 111.530666 0 56.718222-49.777778 101.205333-113.777778 111.502222v16.497778a28.444444 28.444444 0 0 1-56.888888 0v-16.497778c-64-10.296889-113.777778-54.784-113.777778-111.502222a28.444444 28.444444 0 0 1 56.888889 0c0 23.267556 23.096889 45.397333 56.888889 53.589334z m56.888888 0c33.792-8.192 56.888889-30.321778 56.888889-53.589333 0-23.267556-23.096889-45.397333-56.888889-53.589334v107.178667z m-56.888888-170.666667v-107.178666c-33.792 8.192-56.888889 30.321778-56.888889 53.589333 0 23.267556 23.096889 45.397333 56.888889 53.589333zM796.444444 540.444444a28.444444 28.444444 0 0 1 56.888889 0v341.333334a56.888889 56.888889 0 0 1-56.888889 56.888889H227.555556a56.888889 56.888889 0 0 1-56.888889-56.888889V540.444444a28.444444 28.444444 0 0 1 56.888889 0v341.333334h568.888888V540.444444zM104.732444 472.945778a28.444444 28.444444 0 0 1-38.798222-41.585778L434.346667 87.466667a113.777778 113.777778 0 0 1 155.249777 0l368.440889 343.893333a28.444444 28.444444 0 0 1-38.798222 41.585778L550.826667 129.052444a56.888889 56.888889 0 0 0-77.653334 0L104.732444 472.974222z" p-id="24944"></path></svg>