<?xml version="1.0" standalone="no"?><!DOCTYPE svg PUBLIC "-//W3C//DTD SVG 1.1//EN" "http://www.w3.org/Graphics/SVG/1.1/DTD/svg11.dtd"><svg t="1570864960925" class="icon" viewBox="0 0 1025 1024" version="1.1" xmlns="http://www.w3.org/2000/svg" p-id="26748" xmlns:xlink="http://www.w3.org/1999/xlink" width="200.1953125" height="200"><defs><style type="text/css"></style></defs><path d="M399.353856 68.130816 90.630144 68.130816c-14.6944 0-26.607616 11.912192-26.607616 26.606592l0 308.72576c0 44.3904 36.11648 80.503808 80.505856 80.503808l308.723712 0c14.6944 0 26.605568-11.912192 26.605568-26.606592l0-308.72576C479.857664 104.245248 443.744256 68.130816 399.353856 68.130816zM426.645504 430.754816 144.528384 430.754816c-15.04768 0-27.291648-12.242944-27.291648-27.290624L117.236736 121.344l282.120192 0c15.045632 0 27.2896 12.242944 27.2896 27.290624L426.646528 430.754816z" p-id="26749"></path><path d="M929.242112 163.600384c-14.6944 0-26.605568 11.912192-26.605568 26.606592l0 213.256192c0 15.04768-12.243968 27.290624-27.293696 27.290624L593.225728 430.753792 593.225728 148.635648c0-15.04768 12.24192-27.290624 27.291648-27.290624l211.592192 0c14.6944 0 26.605568-11.912192 26.605568-26.606592 0-14.6944-11.912192-26.606592-26.605568-26.606592L620.516352 68.13184c-44.3904 0-80.503808 36.114432-80.503808 80.504832l0 308.72576c0 14.6944 11.912192 26.606592 26.605568 26.606592l308.723712 0c44.392448 0 80.505856-36.114432 80.505856-80.503808L955.84768 190.208C955.84768 175.512576 943.936512 163.600384 929.242112 163.600384z" p-id="26750"></path><path d="M874.91584 544.164864 566.19008 544.164864c-14.6944 0-26.605568 11.912192-26.605568 26.606592l0 308.724736c0 44.3904 36.114432 80.504832 80.505856 80.504832l308.723712 0c14.6944 0 26.605568-11.912192 26.605568-26.606592L955.419648 624.668672C955.419648 580.278272 919.30624 544.164864 874.91584 544.164864zM902.206464 906.786816 620.090368 906.786816c-15.049728 0-27.293696-12.242944-27.293696-27.290624L592.796672 597.378048 874.91584 597.378048c15.04768 0 27.2896 12.242944 27.2896 27.290624L902.20544 906.786816z" p-id="26751"></path><path d="M453.252096 544.164864 144.528384 544.164864c-44.3904 0-80.505856 36.114432-80.505856 80.504832l0 308.724736c0 14.695424 11.91424 26.606592 26.607616 26.606592l308.72576 0c44.388352 0 80.50176-36.114432 80.50176-80.504832L479.857664 570.771456C479.857664 556.076032 467.946496 544.164864 453.252096 544.164864zM426.645504 879.496192c0 15.048704-12.243968 27.290624-27.2896 27.290624L117.235712 906.786816 117.235712 624.668672c0-15.04768 12.243968-27.290624 27.291648-27.290624l282.118144 0L426.645504 879.496192z" p-id="26752"></path><path d="M929.242112 125.474816c16.948224 0 30.736384-13.78816 30.736384-30.737408 0-16.948224-13.78816-30.737408-30.736384-30.737408s-30.738432 13.789184-30.738432 30.737408C898.50368 111.685632 912.293888 125.474816 929.242112 125.474816z" p-id="26753"></path></svg>