<?xml version="1.0" standalone="no"?><!DOCTYPE svg PUBLIC "-//W3C//DTD SVG 1.1//EN" "http://www.w3.org/Graphics/SVG/1.1/DTD/svg11.dtd"><svg t="1570864759121" class="icon" viewBox="0 0 1024 1024" version="1.1" xmlns="http://www.w3.org/2000/svg" p-id="25393" xmlns:xlink="http://www.w3.org/1999/xlink" width="200" height="200"><defs><style type="text/css"></style></defs><path d="M926.148479 793.561915h-311.942661l-3.294381 199.326019a31.120702 31.120702 0 0 1-17.847227 27.954258 28.56196 28.56196 0 0 1-32.08023-4.733673l-254.786757-222.610573h-208.53749c-53.573665 0-97.232204-44.809973-97.232205-100.174758V100.174758c0-55.204863 43.658539-100.174758 97.232205-100.174758h828.488746c53.733587 0 97.392126 44.969894 97.392125 100.174758v593.244383c0 55.3328-43.658539 100.142774-97.392125 100.142774z m36.494061-693.387157c0-20.693828-16.37595-37.581526-36.55803-37.581526H97.659733c-20.022158 0-36.398108 16.887699-36.398108 37.581526v593.244383c0 20.789781 16.37595 37.485573 36.398108 37.485574h219.508098c7.260431 0 14.201019 2.750648 19.702315 7.484321l214.262676 187.52382 2.654695-164.175298c0.479764-17.04762 13.881177-30.832844 30.417048-30.832843h341.879945c20.182079 0 36.558029-16.695793 36.55803-37.485574V100.174758z m-180.615217 394.462097c-34.31913 0-62.177436-28.274102-62.177436-63.168948 0-34.862863 27.858306-63.136964 62.177436-63.136965 34.351114 0 62.177436 28.274102 62.177436 63.136965 0 34.894847-27.826322 63.168949-62.177436 63.168948z m-275.256694 0c-34.31913 0-62.177436-28.274102-62.177436-63.168948 0-34.862863 27.858306-63.136964 62.177436-63.136965 34.351114 0 62.177436 28.274102 62.177436 63.136965 0 34.894847-27.826322 63.168949-62.177436 63.168948z m-270.13921 0c-34.351114 0-62.177436-28.274102-62.177435-63.168948 0-34.862863 27.826322-63.136964 62.177435-63.136965 34.31913 0 62.177436 28.274102 62.177436 63.136965 0 34.894847-27.858306 63.168949-62.177436 63.168948z" p-id="25394"></path></svg>