<?xml version="1.0" standalone="no"?><!DOCTYPE svg PUBLIC "-//W3C//DTD SVG 1.1//EN" "http://www.w3.org/Graphics/SVG/1.1/DTD/svg11.dtd"><svg t="1570864788421" class="icon" viewBox="0 0 1024 1024" version="1.1" xmlns="http://www.w3.org/2000/svg" p-id="25616" xmlns:xlink="http://www.w3.org/1999/xlink" width="200" height="200"><defs><style type="text/css"></style></defs><path d="M826.591955 680.258145c-9.661034-9.718339-25.302269-9.718339-34.957163 0-9.627265 9.711176-9.627265 25.485441 0.028652 35.195593 74.706469 75.191516 115.844401 175.146019 115.844402 281.455254 0 13.749142 11.05273 24.87862 24.720008 24.87862s24.717961-11.129478 24.717961-24.87862c-0.001023-119.598912-46.296419-232.05924-130.35386-316.650847zM512 2.212388c-163.573449 0-296.629861 133.911896-296.629861 298.53321 0 117.424386 67.707055 219.206514 165.887145 267.929192-68.706825 21.153786-131.651412 59.038628-183.871751 111.604844-84.055394 84.570117-130.331347 197.030445-130.331348 316.636521 0 13.749142 11.05273 24.871457 24.720008 24.871457 13.665231 0 24.717961-11.129478 24.717961-24.871457 0-106.316397 41.137932-206.263737 115.852588-281.462417 71.995731-72.482825 166.917614-113.545032 268.324188-116.410289 3.76065 0.140193 7.534604 0.236384 11.330047 0.236383 163.573449 0 296.630884-133.911896 296.630884-298.535257 0.001023-164.620291-133.056412-298.532187-296.629861-298.532187z m3.997034 547.262108a24.289196 24.289196 0 0 0-4.045129-0.361227c-3.753487 0-7.500834 0.048095-11.239996 0.13917-131.070174-5.957689-235.903801-115.142413-235.903801-248.506841 0-137.172149 110.894669-248.774947 247.191892-248.774946s247.192915 111.603821 247.192915 248.774946c0 135.824455-108.741633 246.566652-243.195881 248.728898z m0 0" fill="#272636" p-id="25617"></path></svg>