<?xml version="1.0" standalone="no"?><!DOCTYPE svg PUBLIC "-//W3C//DTD SVG 1.1//EN" "http://www.w3.org/Graphics/SVG/1.1/DTD/svg11.dtd"><svg t="1570864847317" class="icon" viewBox="0 0 1024 1024" version="1.1" xmlns="http://www.w3.org/2000/svg" p-id="26061" xmlns:xlink="http://www.w3.org/1999/xlink" width="200" height="200"><defs><style type="text/css"></style></defs><path d="M512 0C229.2224 0 0 229.2224 0 512s229.2224 512 512 512 512-229.2224 512-512S794.7776 0 512 0z m316.1088 823.296H195.9168c-8.3456 0-16.7168-8.2688-16.7168-16.6912 0-8.2944 8.3712-16.6656 16.7168-16.6656h33.536V254.9248c0-29.2352 25.1136-54.2208 54.4-54.2208h301.4912c29.2864 0 54.4 25.0624 54.4 54.2208l0.2304 537.5488 129.8432-0.6144-1.28-332.1856c0-8.4224-11.5968-16.6656-19.9424-16.6656h-66.9952c-8.3456 0-16.768-8.3968-16.768-16.7168 0-8.3968 8.3456-16.6912 16.768-16.6912h66.9952c29.312 0 54.4 25.0624 54.4 54.2976v326.016h29.3376c8.3712 0 12.4928 8.3968 12.4928 16.6912-0.0256 8.3968-8.32 16.6912-16.7168 16.6912z" fill="#040000" p-id="26062"></path><path d="M590.7712 235.4176H277.632c-8.5248 0-17.1008 8.4736-17.1008 16.8448v540.4928h347.4432V252.2624c-0.0256-8.3712-8.6016-16.8448-17.2032-16.8448z m-80.8704 404.0192h-146.5344c-16.384-0.256-16.6912-10.3424-16.6912-17.2288 0-6.8608 8.3456-13.7728 16.6912-13.7728h146.5344c11.5456-0.3584 16.768 10.3424 16.768 17.2288s-5.2224 14.4384-16.768 13.7728z m0-112.8448h-146.5344c-8.3456 0-16.6912-7.6288-16.6912-15.3088s8.3456-15.36 16.6912-15.36h146.5344c8.3712 0 16.8192 7.6544 16.768 15.36 0 7.68-8.3968 15.3088-16.768 15.3088z m0-129.5104h-146.5344c-8.3456 0-16.6912-7.808-16.6912-15.5392 0-7.7824 8.3456-15.616 16.6912-15.616h146.5344c8.3712 0 16.8192 7.8336 16.768 15.616 0 7.7312-8.3968 15.5392-16.768 15.5392z" fill="#040000" p-id="26063"></path></svg>