<?xml version="1.0" standalone="no"?><!DOCTYPE svg PUBLIC "-//W3C//DTD SVG 1.1//EN" "http://www.w3.org/Graphics/SVG/1.1/DTD/svg11.dtd"><svg t="1570864646115" class="icon" viewBox="0 0 1024 1024" version="1.1" xmlns="http://www.w3.org/2000/svg" p-id="24721" xmlns:xlink="http://www.w3.org/1999/xlink" width="200" height="200"><defs><style type="text/css"></style></defs><path d="M262.078 324.121c0 143.668 111.927 260.121 249.933 260.121S761.91 467.789 761.91 324.121 650.016 64 512.01 64 262.078 180.453 262.078 324.121m695.103 564.107c-39.435-121.232-139.742-213.547-261.553-238.711-53.76 32.637-116.469 51.301-183.618 51.301-67.184 0-129.892-18.664-183.618-51.301-121.81 25.164-222.151 117.479-261.586 238.711C55.186 923.609 81.164 960 116.993 960h790c35.862 0 61.841-36.391 50.188-71.772z" p-id="24722"></path></svg>