<?xml version="1.0" standalone="no"?><!DOCTYPE svg PUBLIC "-//W3C//DTD SVG 1.1//EN" "http://www.w3.org/Graphics/SVG/1.1/DTD/svg11.dtd"><svg t="1570864802968" class="icon" viewBox="0 0 1024 1024" version="1.1" xmlns="http://www.w3.org/2000/svg" p-id="25727" xmlns:xlink="http://www.w3.org/1999/xlink" width="200" height="200"><defs><style type="text/css"></style></defs><path d="M981.624471 659.245176a289.249882 289.249882 0 0 0-133.12-178.657882 291.659294 291.659294 0 0 0-149.202824-41.200941 293.074824 293.074824 0 0 0-250.368 141.733647c-82.432 137.697882-37.255529 316.656941 100.683294 398.938353a291.237647 291.237647 0 0 0 149.172706 41.200941 293.195294 293.195294 0 0 0 250.428235-141.733647 288.768 288.768 0 0 0 32.406589-220.280471z m-61.018353 203.264a259.704471 259.704471 0 0 1-221.846589 125.590589 257.957647 257.957647 0 0 1-132.126117-36.532706c-122.217412-72.884706-162.243765-231.484235-89.238588-353.430588a259.764706 259.764706 0 0 1 221.876705-125.620706c46.411294 0 92.129882 12.649412 132.156236 36.562823a256.150588 256.150588 0 0 1 117.940706 158.268236 255.277176 255.277176 0 0 1-28.762353 195.162352z m-132.005647-131.975529a16.564706 16.564706 0 1 0 0-33.129412h-44.212706l34.002823-61.018353a16.564706 16.564706 0 0 0-6.384941-22.528 16.685176 16.685176 0 0 0-22.618353 6.445177l-43.008 77.131294h-10.902588l-42.977882-77.131294a16.594824 16.594824 0 0 0-29.003295 16.082823l34.002824 61.018353h-47.194353a16.594824 16.594824 0 1 0 0 33.129412h72.553412v40.417882h-72.553412a16.594824 16.594824 0 0 0 0 33.15953h72.553412v53.458823c0 9.155765 7.469176 16.564706 16.624941 16.564706a16.594824 16.594824 0 0 0 16.655059-16.564706v-53.458823h72.493176a16.624941 16.624941 0 1 0 0-33.15953h-72.493176v-40.417882h72.463059zM174.441412 605.123765a293.014588 293.014588 0 0 0 136.252235 40.899764l0.752941 0.030118a16.564706 16.564706 0 0 0 0.722824-33.129412 258.620235 258.620235 0 0 1-120.681412-36.261647C69.270588 503.747765 29.244235 345.148235 102.279529 223.171765A256.421647 256.421647 0 0 1 260.818824 105.441882a256.602353 256.602353 0 0 1 195.493647 28.702118 258.048 258.048 0 0 1 125.711058 228.833882 16.564706 16.564706 0 0 0 16.143059 17.016471 16.384 16.384 0 0 0 17.046588-16.082824 291.388235 291.388235 0 0 0-141.884235-258.228705A289.822118 289.822118 0 0 0 252.687059 73.366588a289.370353 289.370353 0 0 0-178.928941 132.818824C-8.673882 343.883294 36.532706 522.782118 174.441412 605.123765zM674.484706 154.593882h156.190118c48.489412 0 87.943529 39.424 87.943529 87.762824v137.577412a16.624941 16.624941 0 0 0 33.219765 0V242.356706a121.163294 121.163294 0 0 0-121.133177-120.892235h-156.190117a16.594824 16.594824 0 0 0-0.030118 33.129411zM348.400941 931.087059H192.240941a87.943529 87.943529 0 0 1-87.883294-87.762824v-137.547294a16.594824 16.594824 0 0 0-33.219765 0v137.547294a121.163294 121.163294 0 0 0 121.103059 120.952471h156.190118a16.594824 16.594824 0 1 0-0.030118-33.189647z" fill="#020202" p-id="25728"></path></svg>