<?xml version="1.0" standalone="no"?><!DOCTYPE svg PUBLIC "-//W3C//DTD SVG 1.1//EN" "http://www.w3.org/Graphics/SVG/1.1/DTD/svg11.dtd"><svg t="1570864775821" class="icon" viewBox="0 0 1024 1024" version="1.1" xmlns="http://www.w3.org/2000/svg" p-id="25504" xmlns:xlink="http://www.w3.org/1999/xlink" width="200" height="200"><defs><style type="text/css"></style></defs><path d="M627.247 53.577v239.649h242.248L627.247 51.014z" fill="#040000" p-id="25505"></path><path d="M609.009 328.528c-9.375 0-17.029-7.653-17.029-17.028V43.25H162.892c-8.936 0-16.188 7.288-16.188 16.224v905.09c0 8.936 7.252 16.187 16.188 16.187h698.18c8.936 0 16.225-7.251 16.225-16.187V328.382l-268.288 0.146z m-279.639-58.52h140.625c7.838 0 15.637 7.801 15.637 15.601 0 7.837-7.799 15.638-15.637 15.638H329.37c-7.836 0-15.637-7.801-15.637-15.638 0-7.8 7.801-15.601 15.637-15.601z m0 226.575h359.4c7.836 0 15.637 7.837 15.637 15.637 0 7.801-7.801 15.601-15.637 15.601h-359.4c-7.836 0-15.637-7.8-15.637-15.601 0-7.8 7.801-15.637 15.637-15.637z m375.037 242.248c0 7.764-7.801 15.601-15.637 15.601h-359.4c-7.836 0-15.637-7.837-15.637-15.601 0-7.837 7.801-15.674 15.637-15.674h359.4c11.719 0 19.555 7.837 15.637 15.674z" fill="#040000" p-id="25506"></path></svg>